# xmcd
#
# Track frame offsets:
#	150
#	9410
#	22652
#	36849
#	49421
#	59267
#	68417
#	78042
#	89220
#	98202
#	107682
#	118606
#	127173
#	138678
#	149931
#
# Disc length: 2212 seconds
#
# Revision: 1
# Processed by: cddbd v1.4PL0 Copyright (c) Steve Scherf et al.
# Submitted via: audiograbber 1.81.03
#
DISCID=d408a20f
DTITLE=Various Artist - Christmas Grass
DYEAR=2002
DGENRE=Bluegrass
TTITLE0=Christmas Times a Coming
TTITLE1=What Child Is This
TTITLE2=Silver Bells
TTITLE3=Silent Night
TTITLE4=Winter Wonderland
TTITLE5=O Christmas Tree
TTITLE6=Rudolph the Red Nose Reindeer
TTITLE7=Away in a Manger
TTITLE8=Santa Claus is Coming To Town
TTITLE9=Carol of the Bells
TTITLE10=Sleigh Ride
TTITLE11=Deck the Halls
TTITLE12=Joy to the World
TTITLE13=Jingle Bells
TTITLE14=O Holy Night
EXTD=
EXTT0=
EXTT1=
EXTT2=
EXTT3=
EXTT4=
EXTT5=
EXTT6=
EXTT7=
EXTT8=
EXTT9=
EXTT10=
EXTT11=
EXTT12=
EXTT13=
EXTT14=
PLAYORDER=
